<?xml version="1.0" encoding="UTF-8" standalone="no"?>
<!-- Generator: Adobe Illustrator 16.0.0, SVG Export Plug-In . SVG Version: 6.00 Build 0)  -->

<svg
   xmlns:dc="http://purl.org/dc/elements/1.1/"
   xmlns:cc="http://creativecommons.org/ns#"
   xmlns:rdf="http://www.w3.org/1999/02/22-rdf-syntax-ns#"
   xmlns:svg="http://www.w3.org/2000/svg"
   xmlns="http://www.w3.org/2000/svg"
   xmlns:sodipodi="http://sodipodi.sourceforge.net/DTD/sodipodi-0.dtd"
   xmlns:inkscape="http://www.inkscape.org/namespaces/inkscape"
   version="1.1"
   id="Capa_1"
   x="0px"
   y="0px"
   width="500"
   height="500"
   viewBox="0 0 500 500"
   xml:space="preserve"
   inkscape:version="0.48.4 r9939"
   sodipodi:docname="opened33.svg"><metadata
     id="metadata41"><rdf:RDF><cc:Work
         rdf:about=""><dc:format>image/svg+xml</dc:format><dc:type
           rdf:resource="http://purl.org/dc/dcmitype/StillImage" /><dc:title></dc:title></cc:Work></rdf:RDF></metadata><defs
     id="defs39" /><sodipodi:namedview
     pagecolor="#ffffff"
     bordercolor="#666666"
     borderopacity="1"
     objecttolerance="10"
     gridtolerance="10"
     guidetolerance="10"
     inkscape:pageopacity="0"
     inkscape:pageshadow="2"
     inkscape:window-width="1366"
     inkscape:window-height="715"
     id="namedview37"
     showgrid="false"
     inkscape:showpageshadow="false"
     inkscape:zoom="0.47918782"
     inkscape:cx="-50.084746"
     inkscape:cy="246.25"
     inkscape:window-x="0"
     inkscape:window-y="24"
     inkscape:window-maximized="1"
     inkscape:current-layer="Capa_1" /><g
     id="g3788"
     transform="matrix(0.57517848,0,0,0.57517848,106.20538,106.20538)"><path
       transform="translate(934.49152,269.62924)"
       d="m -267.11862,-19.629238 c 0,230.508688 -186.86421,417.372898 -417.3729,417.372898 -230.50868,0 -417.37288,-186.86421 -417.37288,-417.372898 0,-230.508682 186.8642,-417.372892 417.37288,-417.372892 230.50869,0 417.3729,186.86421 417.3729,417.372892 z"
       sodipodi:ry="417.37289"
       sodipodi:rx="417.37289"
       sodipodi:cy="-19.629238"
       sodipodi:cx="-684.49152"
       id="path3786"
       style="fill:#ffffff;fill-opacity:1;stroke:#ea3429;stroke-width:20;stroke-linecap:round;stroke-miterlimit:4;stroke-opacity:1;stroke-dasharray:none"
       sodipodi:type="arc" /><g
       style="fill:#ea3429;fill-opacity:1"
       transform="translate(3.75,3.75)"
       id="g3"><path
         style="fill:#ea3429;fill-opacity:1"
         inkscape:connector-curvature="0"
         id="path5"
         d="M 184.646,0 V 21.72 H 99.704 v 433.358 h 31.403 V 53.123 h 53.539 V 492.5 l 208.15,-37.422 V 393.843 37.5 L 184.646,0 z m 38.292,263.129 c -6.997,0 -12.67,-7.381 -12.67,-16.486 0,-9.104 5.673,-16.485 12.67,-16.485 6.997,0 12.67,7.381 12.67,16.485 0,9.105 -5.673,16.486 -12.67,16.486 z" /></g></g><g
     id="g7"
     transform="translate(0,7.5)" /><g
     id="g9"
     transform="translate(0,7.5)" /><g
     id="g11"
     transform="translate(0,7.5)" /><g
     id="g13"
     transform="translate(0,7.5)" /><g
     id="g15"
     transform="translate(0,7.5)" /><g
     id="g17"
     transform="translate(0,7.5)" /><g
     id="g19"
     transform="translate(0,7.5)" /><g
     id="g21"
     transform="translate(0,7.5)" /><g
     id="g23"
     transform="translate(0,7.5)" /><g
     id="g25"
     transform="translate(0,7.5)" /><g
     id="g27"
     transform="translate(0,7.5)" /><g
     id="g29"
     transform="translate(0,7.5)" /><g
     id="g31"
     transform="translate(0,7.5)" /><g
     id="g33"
     transform="translate(0,7.5)" /><g
     id="g35"
     transform="translate(0,7.5)" /></svg>